<mxfile host="app.diagrams.net" modified="2023-03-12T02:20:00.926Z" agent="5.0 (Windows NT 10.0; Win64; x64) AppleWebKit/537.36 (KHTML, like Gecko) Chrome/110.0.0.0 Safari/537.36 Edg/110.0.1587.69" etag="04SutaPvr9FUJPt7g3IB" version="21.0.2" type="github">
  <diagram name="第 1 页" id="yn682Bc3vULyYWUelcPQ">
    <mxGraphModel dx="1411" dy="854" grid="1" gridSize="10" guides="1" tooltips="1" connect="1" arrows="1" fold="1" page="1" pageScale="1" pageWidth="2339" pageHeight="3300" math="0" shadow="0">
      <root>
        <mxCell id="0" />
        <mxCell id="1" parent="0" />
        <mxCell id="uO_o5AgnxEnByf0xcIqo-1" value="&lt;font style=&quot;font-size: 18px;&quot;&gt;optee_setup()&lt;/font&gt;" style="rounded=0;whiteSpace=wrap;html=1;" vertex="1" parent="1">
          <mxGeometry x="320" y="280" width="150" height="40" as="geometry" />
        </mxCell>
        <mxCell id="uO_o5AgnxEnByf0xcIqo-2" value="&lt;font style=&quot;font-size: 18px;&quot;&gt;cm_set_context(cm_get_context(NON_SECURE), REALM)&lt;/font&gt;" style="rounded=0;whiteSpace=wrap;html=1;" vertex="1" parent="1">
          <mxGeometry x="520" y="200" width="530" height="40" as="geometry" />
        </mxCell>
      </root>
    </mxGraphModel>
  </diagram>
</mxfile>
